<svg width="101" height="101" viewBox="0 0 101 101" fill="none" xmlns="http://www.w3.org/2000/svg">
<path d="M96.2892 0.948829C92.71 0.33227 89.0856 0.0149047 85.4536 2.17239e-05C73.0619 -0.0101379 60.9286 3.54343 50.5 10.2372C40.0446 3.63132 27.9132 0.164969 15.5464 0.249708C11.9144 0.264591 8.29003 0.581956 4.71075 1.19851C3.53834 1.40065 2.47662 2.01478 1.71679 2.9303C0.956963 3.84582 0.548958 5.00257 0.566253 6.19224V66.1169C0.555559 66.8507 0.706698 67.5778 1.00892 68.2465C1.31113 68.9152 1.757 69.509 2.3148 69.9858C2.8726 70.4626 3.52861 70.8106 4.23616 71.005C4.94372 71.1994 5.68542 71.2355 6.4085 71.1107C13.5641 69.8716 20.8953 70.0772 27.9702 71.7153C35.0452 73.3533 41.7208 76.3908 47.6038 80.6487L48.2031 80.9982H48.7523C49.3061 81.229 49.9001 81.3478 50.5 81.3478C51.0999 81.3478 51.6939 81.229 52.2477 80.9982H52.797L53.3962 80.6487C59.2382 76.2956 65.8946 73.1598 72.9709 71.427C80.0472 69.6943 87.3993 69.3999 94.5915 70.5613C95.3146 70.6862 96.0563 70.6501 96.7638 70.4557C97.4714 70.2613 98.1274 69.9133 98.6852 69.4365C99.243 68.9597 99.6889 68.3658 99.9911 67.6971C100.293 67.0284 100.444 66.3014 100.434 65.5676V5.64293C100.382 4.50513 99.9425 3.41928 99.1886 2.56549C98.4348 1.7117 97.4118 1.14127 96.2892 0.948829ZM45.5066 67.3154C36.2683 62.455 25.9851 59.9183 15.5464 59.9247H10.553V9.98747C12.2161 9.89161 13.8833 9.89161 15.5464 9.98747C26.1992 9.9757 36.6195 13.102 45.5066 18.9762V67.3154ZM90.447 60.1245H85.4536C75.0149 60.118 64.7317 62.6547 55.4934 67.5152V18.9762C64.3805 13.102 74.8008 9.9757 85.4536 9.98747C87.1167 9.89161 88.7839 9.89161 90.447 9.98747V60.1245ZM96.2892 80.8484C92.71 80.2319 89.0856 79.9145 85.4536 79.8996C73.0619 79.8895 60.9286 83.443 50.5 90.1367C40.0714 83.443 27.9381 79.8895 15.5464 79.8996C11.9144 79.9145 8.29003 80.2319 4.71075 80.8484C4.06075 80.9516 3.43756 81.1822 2.877 81.5271C2.31644 81.8719 1.82958 82.3242 1.44442 82.8579C1.05926 83.3916 0.783392 83.9962 0.632684 84.6369C0.481976 85.2776 0.459399 85.9417 0.566253 86.5912C0.82001 87.888 1.57736 89.0313 2.67241 89.7708C3.76746 90.5102 5.11092 90.7855 6.4085 90.5362C13.5641 89.2972 20.8953 89.5028 27.9702 91.1409C35.0452 92.7789 41.7208 95.8164 47.6038 100.074C48.4495 100.676 49.4619 101 50.5 101C51.5381 101 52.5505 100.676 53.3962 100.074C59.2792 95.8164 65.9548 92.7789 73.0298 91.1409C80.1047 89.5028 87.4359 89.2972 94.5915 90.5362C95.8891 90.7855 97.2325 90.5102 98.3276 89.7708C99.4226 89.0313 100.18 87.888 100.434 86.5912C100.541 85.9417 100.518 85.2776 100.367 84.6369C100.217 83.9962 99.9407 83.3916 99.5556 82.8579C99.1704 82.3242 98.6836 81.8719 98.123 81.5271C97.5624 81.1822 96.9392 80.9516 96.2892 80.8484Z" fill="#1C1C1E"/>
</svg>
